<svg width="129" height="31" viewBox="0 0 129 31" fill="none" xmlns="http://www.w3.org/2000/svg">
<path fill-rule="evenodd" clip-rule="evenodd" d="M5.84906 0.603386C3.72375 1.51086 1.38136 4.0683 0.644313 7.28057C-0.289613 11.3488 3.60259 13.0709 3.92568 12.5089C4.2942 11.8437 3.22397 11.6169 3.00185 9.50802C2.7141 6.78043 3.96606 3.73316 5.53607 2.39772C5.82887 2.15022 5.81372 2.49568 5.81372 3.13504C5.81372 4.2797 5.75314 14.5456 5.75314 16.6853C5.75314 19.5831 5.63703 20.5009 5.42501 21.4032C5.20793 22.321 4.86465 22.9397 5.12716 23.1769C5.41996 23.445 6.66688 22.8108 7.38373 21.7848C8.24698 20.5576 8.54987 19.0829 8.60541 17.4845C8.67103 15.551 8.66599 12.4934 8.67103 10.7455C8.67103 9.14193 8.69627 4.45501 8.64579 1.63461C8.6256 0.948846 6.7426 0.226989 5.84906 0.603386ZM104.022 15.8294C103.714 15.8294 103.573 16.1543 103.457 16.6957C103.053 18.588 102.629 19.0159 102.079 19.0159C101.468 19.0159 100.918 18.0775 100.776 16.2007C100.665 14.726 100.68 12.0087 100.822 9.30693C100.852 8.75007 100.701 8.20352 99.2367 7.66212C98.6056 7.4301 97.6868 7.08464 97.2325 8.20867C95.9452 11.3694 95.4404 13.8804 95.3192 14.9013C95.3142 14.9529 95.2485 14.9632 95.2384 14.8446C95.1627 14.0248 94.9961 12.5398 94.9709 9.42036C94.9658 8.81194 94.8396 8.29117 94.1783 7.86837C93.7492 7.59509 92.4468 7.10526 91.9773 7.6879C91.5734 8.16227 91.0989 9.43583 90.6092 10.9466C90.2104 12.1737 89.9378 13.0039 89.9378 13.0039C89.9378 13.0039 89.9428 9.68848 89.9479 8.43554C89.9479 7.96118 89.6298 7.8065 89.5339 7.77556C89.0998 7.64666 88.2416 7.43525 87.8781 7.43525C87.4288 7.43525 87.3228 7.6879 87.3228 8.05915C87.3228 8.10555 87.2521 12.4212 87.2521 15.4376V15.8655C87.0047 17.2525 86.2021 19.1345 85.3287 19.1345C84.4503 19.1345 84.0414 18.3508 84.0414 14.7518C84.0414 12.6533 84.102 11.7406 84.1323 10.2247C84.1474 9.35333 84.1828 8.67788 84.1828 8.52835C84.1777 8.05915 83.3801 7.82712 83.0116 7.73947C82.638 7.65181 82.3149 7.61572 82.0625 7.63119C81.7041 7.65181 81.4517 7.88899 81.4517 8.21899C81.4517 8.39429 81.4517 8.72944 81.4517 8.72944C80.9923 7.99727 80.2552 7.48682 79.7605 7.33729C78.4379 6.94027 77.0546 7.29088 76.0097 8.77585C75.1817 9.95144 74.682 11.2869 74.4851 13.205C74.3387 14.6074 74.3892 16.0305 74.6416 17.2319C74.3336 18.588 73.7581 19.1448 73.1321 19.1448C72.2235 19.1448 71.5621 17.6341 71.6379 15.0199C71.6883 13.3029 72.0266 12.0964 72.3951 10.3485C72.5516 9.60598 72.4254 9.21412 72.1023 8.84288C71.8095 8.50257 71.1785 8.32726 70.2748 8.53867C69.6337 8.69335 68.7099 8.85835 67.8719 8.98209C67.8719 8.98209 67.9224 8.77585 67.9627 8.41492C68.1798 6.51231 66.1454 6.66699 65.4941 7.27541C65.1054 7.6415 64.8429 8.06946 64.742 8.83772C64.5855 10.0597 65.5648 10.6372 65.5648 10.6372C65.2417 12.1325 64.4542 14.0867 63.6414 15.4994C63.2073 16.2574 62.8691 16.8194 62.44 17.4124C62.44 17.1906 62.44 16.9689 62.4349 16.7472C62.4248 13.602 62.4652 11.127 62.4854 10.235C62.5005 9.36365 62.5359 8.70882 62.5359 8.55413C62.5308 8.21383 62.3339 8.08493 61.925 7.91993C61.5616 7.77556 61.1375 7.67759 60.6933 7.6415C60.138 7.59509 59.7997 7.89931 59.8098 8.25508C59.8098 8.32211 59.8098 8.7346 59.8098 8.7346C59.3504 8.00243 58.6134 7.49197 58.1187 7.34244C56.796 6.94542 55.4128 7.29604 54.3678 8.781C53.5399 9.9566 52.9997 11.6117 52.8432 13.1946C52.7019 14.6693 52.7271 15.9222 52.924 16.9792C52.712 18.0363 52.1062 19.1448 51.4247 19.1448C50.5513 19.1448 50.0515 18.3611 50.0515 14.7621C50.0515 12.6636 50.1121 11.7509 50.1424 10.235C50.1626 9.36365 50.1929 8.68819 50.1929 8.53867C50.1879 8.06946 49.3902 7.83743 49.0217 7.74978C48.633 7.65697 48.2998 7.62603 48.0423 7.64666C47.7041 7.67244 47.4668 7.9818 47.4668 8.20867V8.73975C47.0075 8.00758 46.2654 7.49713 45.7757 7.3476C44.453 6.95058 43.0799 7.31151 42.0299 8.78616C41.3433 9.75036 40.788 10.8177 40.5053 13.1792C40.4195 13.8598 40.3841 14.4991 40.3892 15.0973C40.1166 16.7988 38.9101 18.753 37.9256 18.753C37.3501 18.753 36.7999 17.6134 36.7999 15.1901C36.7999 11.9572 36.9968 7.35791 37.0321 6.91449C37.0321 6.91449 38.279 6.89386 38.5213 6.88871C39.1423 6.88355 39.7077 6.89902 40.5356 6.85261C40.9495 6.83199 41.3484 5.31609 40.9243 5.13047C40.7274 5.04281 39.3543 4.97063 38.8091 4.96031C38.3749 4.93453 37.0977 4.83657 37.0977 4.83657C37.0977 4.83657 37.2138 1.78414 37.2391 1.4593C37.2593 1.19118 36.916 1.05197 36.7242 0.969471C36.2446 0.763226 35.8205 0.665259 35.3157 0.562137C34.614 0.412609 34.301 0.556981 34.2354 1.16025C34.1395 2.06773 34.094 4.7386 34.094 4.7386C33.5791 4.7386 31.8274 4.63548 31.3175 4.63548C30.8379 4.63548 30.328 6.71855 30.9843 6.74433C31.7415 6.77527 33.0642 6.80105 33.9426 6.82683C33.9426 6.82683 33.9022 11.5034 33.9022 12.9472C33.9022 13.0967 33.9022 13.2462 33.9022 13.3906C33.4226 15.948 31.7213 17.3247 31.7213 17.3247C32.0848 15.6335 31.3427 14.3651 29.9999 13.2926C29.5052 12.8956 28.5309 12.148 27.4354 11.323C27.4354 11.323 28.0664 10.6888 28.6318 9.41521C29.0306 8.51289 29.0458 7.4765 28.0715 7.24963C26.4611 6.87324 25.1283 8.07461 24.7346 9.36365C24.4266 10.3588 24.5932 11.0961 25.194 11.8644C25.2343 11.9211 25.2848 11.9778 25.3353 12.0345C24.9718 12.7512 24.4721 13.7103 24.048 14.4527C22.8718 16.5204 21.9833 18.1548 21.3119 18.1548C20.7767 18.1548 20.7818 16.4946 20.7818 14.9426C20.7818 13.602 20.8777 11.5911 20.9585 9.50286C20.9837 8.81194 20.6455 8.42007 20.075 8.0643C19.7318 7.84774 18.9947 7.41979 18.5656 7.41979C17.9245 7.41979 16.0819 7.50744 14.3402 12.6326C14.1231 13.2771 13.689 14.4579 13.689 14.4579L13.7243 8.29633C13.7243 8.15196 13.6486 8.01274 13.477 7.91477C13.1842 7.74978 12.3966 7.41979 11.7 7.41979C11.3668 7.41979 11.2002 7.57963 11.2002 7.89415L11.1396 17.5361C11.1396 18.2683 11.1598 19.1242 11.2305 19.4954C11.3012 19.8667 11.4173 20.176 11.5586 20.3565C11.7 20.537 11.8666 20.6762 12.1341 20.7329C12.3865 20.7845 13.7698 20.9649 13.8404 20.4287C13.9263 19.7842 13.9313 19.0881 14.6583 16.4946C15.7891 12.4522 17.2632 10.4825 17.9548 9.78129C18.0759 9.65755 18.2173 9.65239 18.2072 9.85348C18.1769 10.7403 18.0759 12.9575 18.0052 14.8343C17.8185 19.8667 18.7171 20.7999 20.0044 20.7999C20.9888 20.7999 22.377 19.8048 23.8663 17.2886C24.7951 15.7212 25.6937 14.1795 26.345 13.0709C26.7943 13.4937 27.3041 13.9526 27.809 14.4373C28.9852 15.5716 29.3689 16.6493 29.1164 17.6702C28.9196 18.4539 28.1825 19.2583 26.87 18.4745C26.4863 18.2477 26.3248 18.0723 25.9411 17.8094C25.7341 17.6702 25.4161 17.6289 25.2293 17.7784C24.7396 18.1548 24.4569 18.6344 24.2954 19.2273C24.1389 19.8048 24.7093 20.109 25.2949 20.3771C25.8048 20.6092 26.8952 20.8154 27.5919 20.8412C30.3028 20.934 32.4735 19.5109 33.988 15.8397C34.2606 19.0108 35.4116 20.8051 37.4107 20.8051C38.7485 20.8051 40.0913 19.0469 40.6769 17.3195C40.8435 18.0259 41.096 18.6395 41.414 19.1551C42.9588 21.6404 45.9473 21.1041 47.4517 18.9953C47.9161 18.3456 47.9868 18.1084 47.9868 18.1084C48.2039 20.0987 49.784 20.7948 50.6876 20.7948C51.6973 20.7948 52.7423 20.3101 53.4743 18.6344C53.5601 18.8148 53.656 18.9901 53.757 19.1551C55.2967 21.6404 58.2903 21.1041 59.7896 18.9953C59.8603 18.8973 59.9209 18.8097 59.9764 18.7272L60.0218 20.0368C60.0218 20.0368 59.1636 20.836 58.6386 21.3259C56.3215 23.4863 54.5596 25.1259 54.4284 27.0337C54.2618 29.4674 56.2054 30.3697 57.6744 30.4883C59.2343 30.612 60.5721 29.7407 61.3899 28.5135C62.1118 27.4359 62.5864 25.1105 62.551 22.8211C62.5359 21.9033 62.5157 20.7381 62.4955 19.4851C63.3083 18.5261 64.227 17.3092 65.0701 15.8913C65.9889 14.3393 66.9783 12.2614 67.4832 10.6424C67.4832 10.6424 68.3414 10.6475 69.2551 10.5908C69.5479 10.5753 69.6287 10.6321 69.5782 10.8486C69.5126 11.1116 68.4221 15.386 69.4166 18.2322C70.0982 20.1812 71.6328 20.8102 72.5415 20.8102C73.6067 20.8102 74.6264 19.9956 75.1716 18.7787C75.2373 18.9128 75.3079 19.0417 75.3837 19.1654C76.9234 21.6507 79.9069 21.1093 81.4214 19.0056C81.7647 18.5312 81.9565 18.1187 81.9565 18.1187C82.2796 20.1812 83.8597 20.8154 84.7633 20.8154C85.7023 20.8154 86.5958 20.4235 87.3228 18.6808C87.3531 19.449 87.4035 20.0781 87.4742 20.274C87.5197 20.3926 87.7872 20.5473 87.9841 20.6195C88.8474 20.9443 89.7207 20.7896 90.0488 20.7226C90.276 20.6762 90.4476 20.4906 90.4729 20.0214C90.5335 18.7787 90.4981 16.6853 90.8667 15.1334C91.4876 12.5244 92.0681 11.5138 92.3458 11.0136C92.4972 10.7352 92.6739 10.6888 92.679 10.9827C92.6941 11.5859 92.7244 13.3442 92.9617 15.716C93.1384 17.4588 93.3756 18.49 93.5574 18.8148C94.0773 19.7481 94.7185 19.7893 95.2384 19.7893C95.5716 19.7893 96.2632 19.6965 96.2027 19.1036C96.1724 18.8148 96.2279 17.0308 96.8387 14.4579C97.2426 12.7822 97.909 11.2663 98.1513 10.7146C98.2421 10.5083 98.2825 10.6733 98.2825 10.7042C98.2321 11.8592 98.1159 15.6335 98.5804 17.7011C99.2064 20.5009 101.024 20.8102 101.655 20.8102C103.003 20.8102 104.108 19.7687 104.482 17.0205C104.552 16.345 104.421 15.8294 104.022 15.8294ZM47.4668 14.1331C47.3911 15.5871 47.1084 16.8039 46.6642 17.6856C45.8514 19.284 44.2511 19.7893 43.5443 17.4794C43.0345 15.814 43.2061 13.5453 43.4181 12.3181C43.7311 10.498 44.5187 9.20896 45.7504 9.33271C47.0175 9.46161 47.6284 11.1116 47.4668 14.1331ZM59.8098 14.1537C59.7391 15.5252 59.3858 16.9071 59.0071 17.6856C58.2196 19.2943 56.5688 19.7996 55.8873 17.4794C55.4229 15.8965 55.5339 13.8495 55.7611 12.5604C56.059 10.8847 56.7859 9.33271 58.0934 9.33271C59.3656 9.33271 59.9916 10.7506 59.8098 14.1537ZM60.1329 23.5224C60.1178 26.0282 59.729 28.2196 58.8961 28.859C57.7148 29.7613 56.1296 29.0858 56.4578 27.2606C56.7506 25.6415 58.1186 23.9916 60.1329 21.9755C60.138 21.9704 60.138 22.4293 60.1329 23.5224ZM81.4365 14.1692C81.3659 15.6747 81.0377 16.8555 80.6339 17.6856C79.8463 19.2943 78.2056 19.7945 77.514 17.4794C77.1354 16.2213 77.1203 14.1124 77.3929 12.3542C77.6705 10.565 78.4429 9.20896 79.7252 9.33271C80.9822 9.45646 81.5728 11.1116 81.4365 14.1692Z" fill="black"/>
<path d="M115.833 10.5L120.5 15.1667L125.167 10.5" stroke="black" stroke-width="1.5" stroke-linecap="round" stroke-linejoin="round"/>
</svg>
